<?xml version="1.0" encoding="iso-8859-1"?>
<!-- Generator: Adobe Illustrator 19.0.0, SVG Export Plug-In . SVG Version: 6.00 Build 0)  -->
<svg version="1.1" id="Layer_1" xmlns="http://www.w3.org/2000/svg" xmlns:xlink="http://www.w3.org/1999/xlink" x="0px" y="0px"
	 viewBox="0 0 511.988 511.988" style="enable-background:new 0 0 511.988 511.988;" xml:space="preserve">
<polygon style="fill:#FB6D51;" points="341.394,255.994 301.396,324.319 341.394,366.756 426.642,383.989 477.265,340.1 
	511.983,319.992 490.64,255.994 405.393,234.651 "/>
<polygon style="fill:#E8563F;" points="362.737,366.756 322.739,324.319 362.737,255.994 417.581,237.697 405.393,234.651 
	341.394,255.994 301.396,324.319 341.394,366.756 "/>
<polygon style="fill:#FB6D51;" points="255.992,234.651 277.397,192.027 234.656,149.326 191.994,170.653 158.518,237.994 "/>
<polygon style="fill:#E8563F;" points="213.329,170.653 241.773,156.435 234.656,149.326 191.994,170.653 158.518,237.994 
	180.221,237.244 "/>
<g>
	<path style="fill:#424953;" d="M191.994,138.654c0,5.891-4.773,10.671-10.664,10.671s-10.672-4.781-10.672-10.671
		s4.781-10.656,10.672-10.656S191.994,132.764,191.994,138.654z"/>
	<path style="fill:#424953;" d="M298.646,159.997c0,5.89-4.766,10.656-10.656,10.656s-10.655-4.766-10.655-10.656
		c0-5.906,4.765-10.671,10.655-10.671S298.646,154.091,298.646,159.997z"/>
	<path style="fill:#424953;" d="M319.99,266.65c0,5.891-4.781,10.671-10.656,10.671c-5.906,0-10.688-4.78-10.688-10.671
		s4.782-10.656,10.688-10.656C315.209,255.994,319.99,260.76,319.99,266.65z"/>
	<path style="fill:#424953;" d="M149.331,117.326c0,5.891-4.781,10.672-10.671,10.672c-5.891,0-10.664-4.781-10.664-10.672
		c0-5.89,4.773-10.671,10.664-10.671C144.55,106.655,149.331,111.436,149.331,117.326z"/>
</g>
<polygon style="fill:#FB6D51;" points="341.332,170.653 319.99,170.653 298.646,191.996 298.646,234.651 341.332,234.651 
	362.847,213.105 "/>
<polygon style="fill:#E8563F;" points="341.332,170.653 319.99,170.653 298.646,191.996 298.646,234.651 319.99,234.651 
	319.99,191.996 "/>
<path style="fill:#7F4545;" d="M502.452,481.814L30.171,9.533c-6.446-6.437-12.437-9.531-17.343-9.531C5.078,0.002,0,7.674,0,22.033
	v489.953h489.953C513.421,511.986,519.046,498.408,502.452,481.814z"/>
<path style="fill:#9B5C5C;" d="M481.109,503.142L8.836,30.861C5.766,27.798,2.797,25.486,0,23.908v488.078h488.078
	C486.484,509.174,484.187,506.221,481.109,503.142z"/>
<g>
</g>
<g>
</g>
<g>
</g>
<g>
</g>
<g>
</g>
<g>
</g>
<g>
</g>
<g>
</g>
<g>
</g>
<g>
</g>
<g>
</g>
<g>
</g>
<g>
</g>
<g>
</g>
<g>
</g>
</svg>
