<?xml version="1.0" encoding="iso-8859-1"?>
<!-- Generator: Adobe Illustrator 19.0.0, SVG Export Plug-In . SVG Version: 6.00 Build 0)  -->
<svg version="1.1" id="Capa_1" xmlns="http://www.w3.org/2000/svg" xmlns:xlink="http://www.w3.org/1999/xlink" x="0px" y="0px"
	 viewBox="0 0 512 512" style="enable-background:new 0 0 512 512;" xml:space="preserve">
<rect x="131.72" y="459.06" style="fill:#C06100;" width="30" height="52.94"/>
<rect x="146.72" y="459.06" style="fill:#9A4C00;" width="15" height="52.94"/>
<polygon style="fill:#2DD729;" points="252.805,473.38 40.645,473.38 85.695,395.34 56.425,395.34 146.725,238.94 237.025,395.34 
	207.755,395.34 "/>
<polygon style="fill:#00BA63;" points="252.805,473.38 146.725,473.38 146.725,238.94 237.025,395.34 207.755,395.34 "/>
<rect x="326.77" y="443.54" style="fill:#C06100;" width="30" height="68.46"/>
<rect x="341.77" y="443.54" style="fill:#9A4C00;" width="15" height="68.46"/>
<polygon style="fill:#C06100;" points="471.355,457.65 413.085,356.73 450.935,356.73 403.36,274.333 280.192,274.333 
	232.615,356.73 270.475,356.73 212.205,457.65 "/>
<polygon style="fill:#9A4C00;" points="413.085,356.73 450.935,356.73 403.36,274.333 341.775,274.333 341.775,457.65 
	471.355,457.65 "/>
<path style="fill:#FF9A00;" d="M436.265,235.31c-16.66,35.44-41.53,54.81-42.58,55.62l-4.04,3.11h-96.17l-3.65-2.28
	c-1.12-0.69-27.63-17.5-45.14-52.05c-15.99-31.53-27.49-84.45,8.53-157.46l9.12-18.48l17.13,16.64c7.78-23.83,23.65-57.69,54-75.82
	l7.69-4.59l0.62,0.37l7.07,4.22c30.36,18.13,46.22,51.99,54,75.82l17.02-16.53l9.18,18.27
	C462.885,149.48,451.655,202.61,436.265,235.31z"/>
<path style="fill:#E67500;" d="M436.265,235.31c-16.66,35.44-41.53,54.81-42.58,55.62l-4.04,3.11h-47.87V0.37l7.07,4.22
	c30.36,18.13,46.22,51.99,54,75.82l17.02-16.53l9.18,18.27C462.885,149.48,451.655,202.61,436.265,235.31z"/>
<path style="fill:#FF633E;" d="M396.885,259.26c-9.28,19.72-22.84,30.5-24.35,31.67l-4.05,3.11h-54.69l-3.65-2.28
	c-1.64-1.02-16.3-10.55-26.17-30.01c-9.08-17.92-15.69-47.85,4.42-88.62l9.12-18.48l8.17,7.93c11.24-27.17,35.05-37.57,35.05-37.57
	s0.37,0.17,1.04,0.52c4.95,2.56,26.21,14.65,34.02,37.05l8.05-7.82l9.18,18.27C411.985,210.76,405.585,240.75,396.885,259.26z"/>
<path style="fill:#FF3300;" d="M396.885,259.26c-9.28,19.72-22.84,30.5-24.35,31.67l-4.05,3.11h-26.71V125.53
	c4.95,2.56,26.21,14.65,34.02,37.05l8.05-7.82l9.18,18.27C411.985,210.76,405.585,240.75,396.885,259.26z"/>
<g>
</g>
<g>
</g>
<g>
</g>
<g>
</g>
<g>
</g>
<g>
</g>
<g>
</g>
<g>
</g>
<g>
</g>
<g>
</g>
<g>
</g>
<g>
</g>
<g>
</g>
<g>
</g>
<g>
</g>
</svg>
